<?xml version="1.0" encoding="utf-8"?>
<!-- Generator: Adobe Illustrator 19.2.1, SVG Export Plug-In . SVG Version: 6.00 Build 0)  -->
<svg version="1.1" id="Hestra" xmlns="http://www.w3.org/2000/svg" xmlns:xlink="http://www.w3.org/1999/xlink" x="0px" y="0px"
	 width="400px" height="220px" viewBox="0 0 400 220" style="enable-background:new 0 0 400 220;" xml:space="preserve">
<style type="text/css">
	.st0{fill:#1D1D1B;}
</style>
<title>Hestra</title>
<g>
	<g>
		<polygon class="st0" points="77.6,144.3 127.3,144.3 127.3,144.3 127.3,131.7 90.2,131.7 90.2,116.7 117.9,116.7 117.9,104.1 
			90.2,104.1 90.2,88.4 127.3,88.4 127.3,75.8 77.6,75.8 		"/>
		<g>
			<path class="st0" d="M309.6,99.5c0-14.2-10-23.7-24.9-23.7h-28v68.5h12.9v-20.7h10.7l13.7,20.7h16.2l-16.8-24
				C303.3,117.2,309.6,109.1,309.6,99.5 M291.7,109.1c-1.8,1.1-3.9,1.8-6.1,1.8h-15.9V88h15.9c6.3,0,11.5,5.1,11.5,11.5
				C297,103.5,294.9,107.1,291.7,109.1C291.7,109.1,291.7,109.1,291.7,109.1"/>
			<polygon class="st0" points="46.7,114.1 15.1,114.1 15.1,75.8 2.5,75.8 2.5,144.3 15.1,144.3 15.1,126.7 46.7,126.7 46.7,144.3 
				59.4,144.3 59.4,75.8 59.4,75.8 46.7,75.8 			"/>
			<path class="st0" d="M164.8,102.7c-3.5-0.9-8-1.5-10.3-4.6c-2.4-3.3-0.7-7.5,2.3-9.8c6.7-5.1,14.7-1.4,20.1,3.7l8.8-9.7
				c-2.2-2.1-4.7-3.9-7.4-5.3c-12.7-6.3-32.5-3.6-37.5,11.5c-2.4,7.1-0.9,15.3,4.9,20.3c5.1,4.5,11.9,5.6,18.2,7.2
				c2.7,0.7,5.4,1.4,7.4,3.6c2.5,2.8,2.9,6.7,0.7,9.7c-3.9,5.4-12.1,6.3-17.9,3.9c-3.4-1.4-5.9-3.8-8.4-6.4l-8.7,9.6
				c0.7,0.8,1.6,1.7,2,2c6.9,7,17.8,9.1,27.3,7.5c10.3-1.7,18.9-8.3,20.3-19.1c0.8-6.2-0.8-12.5-5.5-16.8
				C176.7,105.8,170.5,104.1,164.8,102.7"/>
			<path class="st0" d="M346.6,75.8h-21.3v68.5H338v-14.1h33.3l10.5,14.1h15.8L346.6,75.8z M338,88.9h2.5l21.3,28.7H338V88.9z"/>
			<polygon class="st0" points="194.4,88.4 213.3,88.4 213.3,144.3 226.4,144.3 226.4,88.4 244.8,88.4 244.8,75.8 194.4,75.8 			"/>
		</g>
	</g>
</g>
</svg>
