<?xml version="1.0" encoding="utf-8"?>
<!-- Generator: Adobe Illustrator 19.2.1, SVG Export Plug-In . SVG Version: 6.00 Build 0)  -->
<svg version="1.1" id="Norse_Projects" xmlns="http://www.w3.org/2000/svg" xmlns:xlink="http://www.w3.org/1999/xlink" x="0px" y="0px"
	 width="400px" height="220px" viewBox="0 0 400 220" enable-background="new 0 0 400 220" xml:space="preserve">
<title>Norse Projects</title>
<g>
	<g>
		<polygon points="13.7,90 23.5,117.4 23.6,117.4 23.6,90 31,90 31,130 21.8,130 11.9,102 11.8,102 11.8,130 4.4,130 4.4,90 		"/>
		<g>
			<path d="M49.4,89.2c12.1,0,13.6,8.6,13.6,20.8c0,12.2-1.5,20.8-13.6,20.8s-13.6-8.6-13.6-20.8C35.8,97.8,37.3,89.2,49.4,89.2
				 M49.4,124.9c4.8,0,5.6-4.1,5.6-14.9c0-10.7-0.8-14.9-5.6-14.9c-4.8,0-5.6,4.2-5.6,14.9C43.9,120.8,44.7,124.9,49.4,124.9"/>
			<path d="M67.9,90h14.9c6.6,0,10.7,3.5,10.7,10.3c0,5.3-2.1,8.9-6.7,9.9v0.1c5.5,0.7,6.3,3.8,6.5,12.2c0.1,4.2,0.3,6.4,1.8,7.2
				v0.3h-8.8c-0.8-1.1-1-2.6-1-4.2l-0.2-7.7c-0.1-3.1-1.5-5-4.8-5H76v17h-8.1V90z M76,107.5h3.4c3.9,0,6.1-1.7,6.1-6
				c0-3.7-2-5.6-5.6-5.6H76V107.5z"/>
			<path d="M105.6,117.5v1.2c0,3.8,1.1,6.2,5.3,6.2c2.5,0,4.8-1.6,4.8-4.9c0-3.6-1.9-5-7.2-6.8c-7.2-2.5-10.5-5.5-10.5-12.1
				c0-7.8,4.8-11.8,12.4-11.8c7.2,0,12.4,3.1,12.4,10.8v1.1h-7.7c0-3.8-1.3-5.9-4.4-5.9c-3.6,0-4.6,2.3-4.6,4.7c0,2.5,0.7,4,4.2,5.4
				l6.2,2.7c6.1,2.6,7.6,5.7,7.6,10.6c0,8.5-5.2,12.3-13.9,12.3c-9.2,0-12.7-4.3-12.7-11.7v-1.6H105.6z"/>
			<polygon points="150.7,90 150.7,96.6 136.3,96.6 136.3,106 149.8,106 149.8,112.6 136.3,112.6 136.3,123.4 151.2,123.4 
				151.2,130 128.2,130 128.2,90 			"/>
			<path d="M168.7,90h14.2c8.2,0,11,6,11,12c0,8.3-5.1,12.1-12.7,12.1h-4.3v16h-8.1V90z M176.8,108.1h3.6c3.2,0,5.4-1.9,5.4-6
				c0-3.9-1.6-6.2-5.6-6.2h-3.4V108.1z"/>
			<path d="M197.9,90h14.9c6.6,0,10.7,3.5,10.7,10.3c0,5.3-2.1,8.9-6.7,9.9v0.1c5.5,0.7,6.3,3.8,6.5,12.2c0.1,4.2,0.3,6.4,1.8,7.2
				v0.3h-8.8c-0.8-1.1-1-2.6-1-4.2l-0.2-7.7c-0.1-3.1-1.5-5-4.8-5H206v17h-8.1V90z M206,107.5h3.4c3.9,0,6.1-1.7,6.1-6
				c0-3.7-2-5.6-5.6-5.6H206V107.5z"/>
			<path d="M241.9,89.2c12.1,0,13.6,8.6,13.6,20.8c0,12.2-1.5,20.8-13.6,20.8c-12.1,0-13.6-8.6-13.6-20.8
				C228.3,97.8,229.8,89.2,241.9,89.2 M241.9,124.9c4.8,0,5.6-4.1,5.6-14.9c0-10.7-0.8-14.9-5.6-14.9c-4.8,0-5.6,4.2-5.6,14.9
				C236.4,120.8,237.2,124.9,241.9,124.9"/>
			<path d="M281.1,90v28.9c0,8.5-3.9,12-12.1,12c-8.5,0-10.6-5.5-10.6-11.7v-1.7h7.4v1.2c0,4.3,0.7,6.3,3.6,6.3c2.9,0,3.6-2,3.6-6.3
				V90H281.1z"/>
			<polygon points="308.8,90 308.8,96.6 294.4,96.6 294.4,106 307.9,106 307.9,112.6 294.4,112.6 294.4,123.4 309.3,123.4 
				309.3,130 286.4,130 286.4,90 			"/>
			<path d="M330.5,103.5c0-5.8-1.2-8.4-4.8-8.4c-4.1,0-5.1,4.1-5.1,15.4c0,12.1,1.7,14.3,5.2,14.3c2.9,0,5.1-1.5,5.1-10.2h8.1
				c0,8.6-2.1,16.1-12.8,16.1c-12.1,0-13.6-8.6-13.6-20.8c0-12.2,1.5-20.8,13.6-20.8c11.6,0,12.4,8.5,12.4,14.3H330.5z"/>
			<polygon points="367,90 367,96.6 358.3,96.6 358.3,130 350.2,130 350.2,96.6 341.4,96.6 341.4,90 			"/>
			<path d="M377,117.5v1.2c0,3.8,1.1,6.2,5.3,6.2c2.5,0,4.8-1.6,4.8-4.9c0-3.6-1.9-5-7.2-6.8c-7.2-2.5-10.5-5.5-10.5-12.1
				c0-7.8,4.8-11.8,12.4-11.8c7.2,0,12.4,3.1,12.4,10.8v1.1h-7.7c0-3.8-1.3-5.9-4.4-5.9c-3.6,0-4.6,2.3-4.6,4.7c0,2.5,0.7,4,4.2,5.4
				l6.2,2.7c6.1,2.6,7.6,5.7,7.6,10.6c0,8.5-5.2,12.3-13.9,12.3c-9.2,0-12.7-4.3-12.7-11.7v-1.6H377z"/>
		</g>
	</g>
</g>
</svg>
