<?xml version="1.0" encoding="utf-8"?>
<!-- Generator: Adobe Illustrator 19.2.1, SVG Export Plug-In . SVG Version: 6.00 Build 0)  -->
<svg version="1.1" id="Polo_Ralph_Lauren" xmlns="http://www.w3.org/2000/svg" xmlns:xlink="http://www.w3.org/1999/xlink" x="0px" y="0px"
	 width="400px" height="220px" viewBox="0 0 400 220" enable-background="new 0 0 400 220" xml:space="preserve">
<title>Polo Ralph Lauren</title>
<g>
	<g>
		<g>
			<path d="M6,139.6V138h8.9V38.4H6v-1.6h42.4c23.5,0,36.2,11.3,36.2,26.9c0,15.6-11.8,25.5-36,25.5H30.8V138h13.6v1.6H6z
				 M30.8,87.5h13.9c15.9,0,23-6.5,23-24.4c0-14-6.3-24.7-21.7-24.7H30.8V87.5z"/>
			<path d="M147.1,34.4c22.3,0,42.5,21.1,42.5,53.8c0,32.7-20.2,53.8-42.5,53.8c-22.3,0-42.5-21.1-42.5-53.8
				C104.6,55.5,124.8,34.4,147.1,34.4 M147.1,140.4c16.4,0,24.2-13.2,24.2-52.2c0-38.9-7.8-52.2-24.2-52.2
				c-16.4,0-24.2,13.2-24.2,52.2C122.9,127.1,130.7,140.4,147.1,140.4"/>
			<path d="M237.6,138h21.8c9.7,0,12.6-3.4,21.4-39.7h3.2v41.3h-71.3V138h8.9V38.4h-8.9v-1.6h39.6v1.6h-14.8V138z"/>
			<path d="M351.5,34.4c22.3,0,42.5,21.1,42.5,53.8c0,32.7-20.2,53.8-42.5,53.8c-22.3,0-42.5-21.1-42.5-53.8
				C309,55.5,329.2,34.4,351.5,34.4 M351.5,140.4c16.4,0,24.2-13.2,24.2-52.2c0-38.9-7.8-52.2-24.2-52.2
				c-16.4,0-24.2,13.2-24.2,52.2C327.3,127.1,335.1,140.4,351.5,140.4"/>
			<path d="M57.2,165h2.9c3.5,0,4.6,2.3,4.6,4.4c0,3-1.8,4.7-5.6,4.7h-1.9V165z M59.6,185.2v-0.7h-2.4v-9.9h0.1l8,10.6h5v-0.7h-1.5
				l-7.5-9.9c4.5-0.3,6.9-2.3,6.9-5.2c0-2.6-1.9-5-7.2-5h-9.2v0.7h1.9v19.5h-1.9v0.7H59.6z"/>
			<path d="M85.3,167.3L85.3,167.3l3.1,8.8h-6.2L85.3,167.3z M82.2,185.2v-0.7h-3l2.7-7.7h6.6l2.6,7.7h-2.3v0.7h7v-0.7h-1.3
				l-6.9-20.4h-2l-7.3,20.4h-1.8v0.7H82.2z"/>
			<path d="M109.4,184.5h4.7c2.1,0,2.7-0.4,4.6-7.7h0.7v8.4h-15.2v-0.7h1.9V165h-1.9v-0.7h8.5v0.7h-3.2V184.5z"/>
			<path d="M134.5,165h3.3c3.3,0,4.6,2,4.6,4.8c0,3.6-1.5,4.6-4.9,4.6h-3V165z M137.4,185.2v-0.7h-2.9V175h3.8
				c5.2,0,7.7-2.1,7.7-5.3c0-3.2-2.7-5.4-7.7-5.4h-9.1v0.7h1.9v19.5h-1.9v0.7H137.4z"/>
			<polygon points="159.8,174.7 159.8,184.5 161.8,184.5 161.8,185.2 154.5,185.2 154.5,184.5 156.3,184.5 156.3,165 154.5,165 
				154.5,164.3 161.8,164.3 161.8,165 159.8,165 159.8,174 168.1,174 168.1,165 166,165 166,164.3 173.4,164.3 173.4,165 171.5,165 
				171.5,184.5 173.4,184.5 173.4,185.2 166,185.2 166,184.5 168.1,184.5 168.1,174.7 			"/>
			<path d="M207.3,184.5h4.7c2.1,0,2.7-0.4,4.6-7.7h0.7v8.4H202v-0.7h1.9V165H202v-0.7h8.4v0.7h-3.1V184.5z"/>
			<path d="M233.7,167.3L233.7,167.3l3.1,8.8h-6.2L233.7,167.3z M230.6,185.2v-0.7h-3l2.7-7.7h6.6l2.6,7.7h-2.3v0.7h7v-0.7h-1.3
				l-6.9-20.4h-2l-7.3,20.4h-1.8v0.7H230.6z"/>
			<path d="M259.6,164.3v0.7h-2.3v15.1c0,3.7,2.2,4.8,4.2,4.8c3,0,5.1-1.9,5.1-5.1V165h-2.8v-0.7h5.6v0.7h-1.9v15
				c0,3.5-2.4,5.7-6.1,5.7c-5.1,0-7.4-2-7.4-6.2V165H252v-0.7H259.6z"/>
			<path d="M283.5,165h2.9c3.5,0,4.6,2.3,4.6,4.4c0,3-1.8,4.7-5.6,4.7h-1.9V165z M285.9,185.2v-0.7h-2.4v-9.9h0.1l8,10.6h5v-0.7
				h-1.5l-7.5-9.9c4.5-0.3,6.9-2.3,6.9-5.2c0-2.6-1.9-5-7.2-5h-9.2v0.7h1.9v19.5h-1.9v0.7H285.9z"/>
			<path d="M304,185.2v-0.7h1.9V165H304v-0.7h16v6.7h-0.7c-1.7-5.6-2.2-6-3.7-6h-6.2v9.1h2.5c1.6,0,2.3-0.9,3-4.2h0.7v9h-0.7
				c-0.6-3.2-1.4-4.2-3-4.2h-2.5v9.8h5.6c2.2,0,2.9-0.8,4.8-7.1h0.7v7.7H304z"/>
			<polygon points="332.8,165.6 332.7,165.6 332.7,184.5 335.4,184.5 335.4,185.2 329.8,185.2 329.8,184.5 331.9,184.5 331.9,165 
				329.8,165 329.8,164.3 335.8,164.3 345.1,179.4 345.1,179.4 345.1,165 342.6,165 342.6,164.3 348.1,164.3 348.1,165 346,165 
				346,185.2 345,185.2 			"/>
		</g>
	</g>
</g>
</svg>
