<?xml version="1.0" encoding="utf-8"?>
<!-- Generator: Adobe Illustrator 19.2.1, SVG Export Plug-In . SVG Version: 6.00 Build 0)  -->
<svg version="1.1" id="Puma" xmlns="http://www.w3.org/2000/svg" xmlns:xlink="http://www.w3.org/1999/xlink" x="0px" y="0px"
	 width="400px" height="220px" viewBox="0 0 400 220" enable-background="new 0 0 400 220" xml:space="preserve">
<title>Puma</title>
<g>
	<g>
		<g>
			<path fill-rule="evenodd" clip-rule="evenodd" d="M213.7,6.5c-1.1,0.2-2.3,5.2-4.5,7.9c-1.6,1.9-3.6,1.8-4.7,4.1
				c-0.4,0.9-0.3,2.4-0.7,3.8c-0.9,2.9-4.1,3.1-4.1,6.3c0,3.4,2.7,4,5,6.4c1.8,1.9,2,3.3,4.2,4.2c1.9,0.8,4.6-1.7,7.1-0.8
				c2.1,0.7,4,1.2,4.5,3.8c0.4,2.3,0,5.9-2.5,5.5c-0.8-0.1-4.5-1.6-8.9-1c-5.4,0.7-11.5,2.8-12.1,10c-0.3,4,3.8,8.7,7.8,7.8
				c2.8-0.7,1.4-4.6,3-6.4c2-2.4,13.2,8.5,23.6,8.5c4.4,0,7.7-1.3,10.9-5.4l1.1-1l1.5,0.8c8.4,8.1,14.8,24.2,45.6,24.4
				c4.3,0,9.3,2.5,13.3,6.9c3.6,4,5.7,10.2,7.8,16.4c3.1,9.4,8.6,18.6,17,28.7c0.5,0.5,7.4,7,7.9,7.4c0.1,0.1,0.6,1.5,0.4,2.3
				c-0.2,6.1-1,23.8,10.1,24.7c2.7,0.2,2-2.1,2-3.7c0-3.1-0.5-6.2,0.9-9.3c1.9-4.4-4-6.4-3.8-15.8c0.1-7-4.8-5.8-7.3-11.2
				c-1.4-3.1-2.7-4.7-2.6-8.5c0.6-21.3-3.8-35.3-6-38.8c-1.7-2.6-3.1-3.6-1.6-4.8c9.3-7.3,11.4-14.1,11.4-14.1
				c4.9-13.8,9.3-26.4,15.5-32c1.2-1.1,4.4-4,6.3-5c5.7-3.2,8.7-5.2,10.4-7.1c2.6-3,4.7-9.4,2.2-13.2c-3.1-4.8-8.5-1-10.9,0.7
				c-17,12-19.5,33.3-25.4,45.5c-4.7,9.8-12.4,16.9-19.2,17.5c-5.1,0.5-10.7-0.8-16.2-3.7c-13.4-7-20.7-16-22.4-17.6
				c-3.6-3.3-31.5-36-54.1-37.3c0,0-2.8-6.7-3.5-6.8c-1.7-0.3-3.3,4-4.6,4.5C216.7,11.3,214.8,6.3,213.7,6.5"/>
			<path fill-rule="evenodd" clip-rule="evenodd" d="M114.1,201.6c-2.1-0.1-3.9-2.2-3.9-4.7v-84.2H86.9v92.8c0,4.6,3.1,8.3,6.9,8.3
				h40.6c3.8,0,6.9-3.7,6.9-8.3v-92.8h-23.2l0,84.2C118.1,199.4,116.2,201.5,114.1,201.6"/>
			<path fill-rule="evenodd" clip-rule="evenodd" d="M191.9,112.7h-35.2c-4.2,0-7.6,4-7.6,9.1v91.9h23.3v-84.3
				c0-2.6,1.8-4.6,3.9-4.6c2.2,0,3.9,2,4,4.6v84.4h23.2v-84.4c0-2.6,1.8-4.6,3.9-4.6c2.2,0,3.9,2,3.9,4.6v84.3h23.3v-91.9
				c0-5-3.4-9.1-7.6-9.1H191.9z"/>
			<path fill-rule="evenodd" clip-rule="evenodd" d="M71.4,188.3H47.9v25.4H24.7v-101h46.9c4.2,0,7.5,4.1,7.5,9.1v57.4
				C79,184.3,75.6,188.3,71.4,188.3 M55.8,129.6c0-2.8-1.9-4.8-3.9-4.8h-3.9v51.1h3.9c2.1,0,3.9-2,3.9-4.8V129.6z"/>
			<path fill-rule="evenodd" clip-rule="evenodd" d="M324.9,201.8c0,6.9-4.6,12.4-10.3,12.4c-5.8,0-10.4-5.5-10.4-12.4
				c0-6.8,4.6-12.4,10.2-12.4C320.3,189.3,324.9,194.8,324.9,201.8 M314.4,191.1c-4.7,0-8.6,4.8-8.6,10.6c0,5.9,3.9,10.6,8.7,10.6
				c4.8,0,8.6-4.8,8.6-10.6c0-5.9-3.9-10.6-8.6-10.6H314.4z"/>
			<path fill-rule="evenodd" clip-rule="evenodd" d="M319.5,209h-2.8l-3.6-5.7v5.7h-2.3v-14.3h2.4c3.2,0,5,1.5,5,4.2
				c0,1.9-1,3.5-2.4,4l-0.2,0.1L319.5,209z M313.5,201c1.6,0,2.5-0.7,2.5-2c0-1.2-0.8-1.9-2.4-1.9h-0.5v3.9H313.5z"/>
			<path fill-rule="evenodd" clip-rule="evenodd" d="M273.7,213.7v-25.3h-7.9v25.3h-23.2v-91.9c0-5,3.4-9.1,7.6-9.1h39.3
				c4.2,0,7.6,4.1,7.6,9.1v91.9H273.7z M273.7,175.9v-46.5c-0.1-2.6-1.8-4.6-4-4.6c-2.2,0-3.9,2.1-3.9,4.6v46.4H273.7z"/>
		</g>
	</g>
</g>
</svg>
