<svg width="50" height="50" viewBox="0 0 50 50" fill="none" xmlns="http://www.w3.org/2000/svg">
<path d="M35 20C34.9 19.6 34.4 19 34 19H31C30.8 15.9 28.5 13 25 13C21.5 13 19.2 15.9 19 19H16.1C15.7 19 15.1 19.6 15 20C15 20.3 14.3 25.3 13 35.1C13 35.3 13 35.5 13.2 35.7C13.4 35.9 13.6 36 13.8 36H36.2C36.4 36 36.6 35.9 36.8 35.7C37 35.5 37 35.3 37 35.1L35 20ZM25 14C27.9 14 29.8 16.5 30 19H20C20.2 16.5 22.1 14 25 14ZM36 35H14V34L16 20H19V22C19 22.3 19.2 22.5 19.5 22.5C19.8 22.5 20 22.3 20 22V20H30V22C30 22.3 30.2 22.5 30.5 22.5C30.8 22.5 31 22.3 31 22V20H34L36 34V35Z" fill="black"/>
</svg>
